<?xml version="1.0" encoding="UTF-8"?>
<svg viewBox="0 0 80 80" version="1.1" xmlns="http://www.w3.org/2000/svg" xmlns:xlink="http://www.w3.org/1999/xlink">
    <!-- Generator: Sketch 53.2 (72643) - https://sketchapp.com -->
    <title>Artboard Copy</title>
    <desc>Created with Sketch.</desc>
    <g id="Artboard-Copy" stroke="none" stroke-width="1" fill="none" fill-rule="evenodd">
        <g id="coffee_break_logo">
            <rect id="bg" x="0" y="0" width="80" height="80"></rect>
            <path d="M72.2492669,38.2492669 C72.2492669,55.5081465 58.258661,69.4985337 41.0000469,69.4985337 C23.7416206,69.4985337 9.75073314,55.5081465 9.75073314,38.2492669 C9.75073314,20.9903872 23.7416206,7 41.0000469,7 C58.258661,7 72.2492669,20.9903872 72.2492669,38.2492669 Z M66.2434018,38.2492669 C66.2434018,24.3074104 54.941575,13.0058651 41.0000938,13.0058651 C27.0585188,13.0058651 15.7565982,24.3074104 15.7565982,38.2492669 C15.7565982,52.1911233 27.0585188,63.4926686 41.0000938,63.4926686 C54.941575,63.4926686 66.2434018,52.1911233 66.2434018,38.2492669 Z" id="Combined-Shape" fill="#000000"></path>
            <polyline id="Fill-19" fill="#000000" points="24.3900293 30.8299958 41.385312 48.1026393 73 16.9472141 40.960308 38.3219932 24.3900293 30.8299958"></polyline>
            <path d="M25.9853372,63.1882518 L18.0130655,55.7038123 C18.0130655,55.7038123 10.8074252,63.3378277 9.53164752,64.7404545 C8.25624561,66.1430814 9.67621874,67.5268937 9.67621874,67.5268937 L14.6811637,72.360359 C14.6811637,72.360359 16.3167255,73.7074828 17.5070192,72.3989288 C18.6967493,71.0903749 25.9853372,63.1882518 25.9853372,63.1882518" id="Fill-20" fill="#000000"></path>
        </g>
    </g>
</svg>