<?xml version="1.0" encoding="UTF-8"?>
<svg width="22px" height="22px" viewBox="0 0 22 22" version="1.1" xmlns="http://www.w3.org/2000/svg" xmlns:xlink="http://www.w3.org/1999/xlink">
    <!-- Generator: Sketch 53.2 (72643) - https://sketchapp.com -->
    <title>collapse</title>
    <desc>Created with Sketch.</desc>
    <g id="Page-1" stroke="none" stroke-width="1" fill="none" fill-rule="evenodd">
        <g id="Tree" transform="translate(-70.000000, -18.000000)">
            <g id="collapse" transform="translate(70.000000, 18.000000)">
                <path d="M2,4 L0,4 L0,20 C0,21.1 0.9,22 2,22 L18,22 L18,20 L2,20 L2,4 L2,4 Z M20,0 L6,0 C4.9,0 4,0.9 4,2 L4,16 C4,17.1 4.9,18 6,18 L20,18 C21.1,18 22,17.1 22,16 L22,2 C22,0.9 21.1,0 20,0 L20,0 Z M20,16 L6,16 L6,2 L20,2 L20,16 L20,16 Z" id="shape" fill="#424242" transform="translate(11.000000, 11.000000) scale(-1, -1) translate(-11.000000, -11.000000) "></path>
                <path d="M5.5,13 L12.5,13" id="minus" stroke="#424242" stroke-width="2" stroke-linecap="square"></path>
            </g>
        </g>
    </g>
</svg>