<?xml version="1.0" encoding="UTF-8"?>
<svg width="22px" height="18px" viewBox="0 0 22 18" version="1.1" xmlns="http://www.w3.org/2000/svg" xmlns:xlink="http://www.w3.org/1999/xlink">
    <!-- Generator: Sketch 53.2 (72643) - https://sketchapp.com -->
    <title>ic_cast</title>
    <desc>Created with Sketch.</desc>
    <g id="Page-1" stroke="none" stroke-width="1" fill="none" fill-rule="evenodd">
        <g id="Linked" transform="translate(-18.000000, -20.000000)">
            <g id="ic_cast" transform="translate(17.000000, 17.000000)">
                <g id="Icon-24px">
                    <polygon id="Shape" opacity="0.1" points="0 0 24 0 24 24 0 24"></polygon>
                    <polygon id="Shape" points="0 0 24 0 24 24 0 24"></polygon>
                    <path d="M21,3 L3,3 C1.9,3 1,3.9 1,5 L1,8 L3,8 L3,5 L21,5 L21,19 L14,19 L14,21 L21,21 C22.1,21 23,20.1 23,19 L23,5 C23,3.9 22.1,3 21,3 L21,3 Z M1,18 L1,21 L4,21 C4,19.34 2.66,18 1,18 L1,18 Z M1,14 L1,16 C3.76,16 6,18.24 6,21 L8,21 C8,17.13 4.87,14 1,14 L1,14 Z M1,10 L1,12 C5.97,12 10,16.03 10,21 L12,21 C12,14.92 7.07,10 1,10 L1,10 Z" id="Shape" fill="#424242"></path>
                </g>
            </g>
        </g>
    </g>
</svg>