<?xml version="1.0" encoding="UTF-8"?>
<svg width="24px" height="18px" viewBox="0 0 24 18" version="1.1" xmlns="http://www.w3.org/2000/svg" xmlns:xlink="http://www.w3.org/1999/xlink">
    <!-- Generator: Sketch 53.2 (72643) - https://sketchapp.com -->
    <title>show_linked</title>
    <desc>Created with Sketch.</desc>
    <g id="Page-1" stroke="none" stroke-width="1" fill="none" fill-rule="evenodd">
        <g id="Hide-linked-tasks" transform="translate(-17.000000, -21.000000)">
            <g id="show_linked" transform="translate(17.000000, 17.000000)">
                <g id="Icon-24px">
                    <polygon id="Shape" points="0 0 24 0 24 24 0 24"></polygon>
                    <path d="M19.35,10.04 C18.67,6.59 15.64,4 12,4 C10.52,4 9.15,4.43 7.99,5.17 L9.45,6.63 C10.21,6.23 11.08,6 12,6 C15.04,6 17.5,8.46 17.5,11.5 L17.5,12 L19,12 C20.66,12 22,13.34 22,15 C22,16.13 21.36,17.11 20.44,17.62 L21.89,19.07 C23.16,18.16 24,16.68 24,15 C24,12.36 21.95,10.22 19.35,10.04 L19.35,10.04 Z M3,5.27 L5.75,8.01 C2.56,8.15 0,10.77 0,14 C0,17.31 2.69,20 6,20 L17.73,20 L19.73,22 L21,20.73 L4.27,4 L3,5.27 L3,5.27 Z M7.73,10 L15.73,18 L6,18 C3.79,18 2,16.21 2,14 C2,11.79 3.79,10 6,10 L7.73,10 L7.73,10 Z" id="Shape" fill="#000000"></path>
                </g>
            </g>
        </g>
    </g>
</svg>